<svg width="66" height="96" viewBox="0 0 66 96" fill="none" xmlns="http://www.w3.org/2000/svg">
<path d="M0.4 96V0.895996H25.296V39.232C26.32 37.952 27.5147 36.5867 28.88 35.136C30.288 33.6853 32.08 32.448 34.256 31.424C36.4747 30.3573 39.312 29.824 42.768 29.824C46.9067 29.824 50.7253 30.6773 54.224 32.384C57.7227 34.048 60.5387 36.5227 62.672 39.808C64.8053 43.0933 65.872 47.1467 65.872 51.968V96H40.912V55.168C40.912 52.992 40.08 51.3707 38.416 50.304C36.752 49.1947 34.9813 48.64 33.104 48.64C31.9093 48.64 30.6933 48.9173 29.456 49.472C28.2613 49.984 27.2587 50.752 26.448 51.776C25.68 52.8 25.296 54.0373 25.296 55.488V96H0.4Z" fill="#C8FF18"/>
</svg>
