<svg width="379" height="121" viewBox="0 0 379 121" fill="none" xmlns="http://www.w3.org/2000/svg">
<path d="M28.336 50.12V97.096H14.384V64.072H2.48V50.12H28.336ZM28.336 92.104C30.896 96.3707 34.5227 99.528 39.216 101.576C43.9947 103.624 49.712 104.819 56.368 105.16C60.3787 105.245 65.2427 105.331 70.96 105.416C76.6773 105.416 82.6507 105.416 88.88 105.416C95.1947 105.331 101.339 105.16 107.312 104.904C113.285 104.648 118.576 104.349 123.184 104.008C122.672 105.032 122.075 106.397 121.392 108.104C120.795 109.811 120.24 111.517 119.728 113.224C119.216 115.016 118.875 116.595 118.704 117.96C114.523 118.131 109.701 118.259 104.24 118.344C98.864 118.515 93.232 118.6 87.344 118.6C81.5413 118.685 75.952 118.685 70.576 118.6C65.2 118.515 60.464 118.429 56.368 118.344C48.5173 118.003 41.8613 116.723 36.4 114.504C30.9387 112.371 26.2453 108.829 22.32 103.88C20.1867 106.44 17.8827 108.957 15.408 111.432C13.0187 113.992 10.4587 116.723 7.728 119.624L0.56 105.288C3.03467 103.411 5.59467 101.363 8.24 99.144C10.8853 96.84 13.4453 94.4933 15.92 92.104H28.336ZM1.712 10.568L14.128 3.39999C16.2613 5.61866 18.3947 8.008 20.528 10.568C22.6613 13.128 24.624 15.688 26.416 18.248C28.208 20.808 29.5733 23.1547 30.512 25.288L17.2 33.224C16.3467 31.0907 15.0667 28.744 13.36 26.184C11.7387 23.5387 9.904 20.8507 7.856 18.12C5.89333 15.3893 3.84533 12.872 1.712 10.568ZM36.528 5.19199H49.328V27.208C49.328 31.7307 49.1147 36.68 48.688 42.056C48.3467 47.432 47.6213 52.936 46.512 58.568C45.4027 64.2 43.824 69.704 41.776 75.08C39.8133 80.456 37.168 85.32 33.84 89.672C33.2427 88.7333 32.304 87.624 31.024 86.344C29.8293 85.064 28.592 83.8693 27.312 82.76C26.032 81.5653 24.9653 80.712 24.112 80.2C27.8667 74.9093 30.5973 69.1493 32.304 62.92C34.096 56.6907 35.248 50.4613 35.76 44.232C36.272 38.0027 36.528 32.2853 36.528 27.08V5.19199ZM44.464 5.19199H72.368V43.336H44.464V31.688H59.44V16.84H44.464V5.19199ZM46.64 53.448H74.032V92.872H46.64V81.352H61.232V65.096H46.64V53.448ZM40.368 53.448H52.656V98.888H40.368V53.448ZM76.208 14.152H119.472V26.312H76.208V14.152ZM76.336 67.016H119.344V79.176H76.336V67.016ZM75.184 44.872H120.496V57.16H75.184V44.872ZM91.056 0.199997H104.88V20.424H91.056V0.199997ZM91.056 49.352H104.88V100.424H91.056V49.352ZM80.304 27.976L90.928 25.672C91.952 28.3173 92.8053 31.2613 93.488 34.504C94.256 37.7467 94.6827 40.5627 94.768 42.952L83.504 45.512C83.504 43.1227 83.2053 40.3067 82.608 37.064C82.0107 33.8213 81.2427 30.792 80.304 27.976ZM104.752 25.16L117.04 27.848C115.845 31.0907 114.693 34.3333 113.584 37.576C112.475 40.7333 111.451 43.464 110.512 45.768L100.528 43.208C101.04 41.5013 101.552 39.5813 102.064 37.448C102.661 35.3147 103.173 33.1813 103.6 31.048C104.112 28.8293 104.496 26.8667 104.752 25.16ZM134.704 65.48H186.8V76.616H134.704V65.48ZM129.968 82.12H190V94.024H129.968V82.12ZM130.992 10.568H190.128V22.472H130.992V10.568ZM141.488 0.199997H154.672V29.256H141.488V0.199997ZM166.832 0.199997H180.016V29.256H166.832V0.199997ZM153.776 35.144H166.064V55.752H153.776V35.144ZM145.712 41.416V50.376H174.512V41.416H145.712ZM134.192 31.56H186.672V60.36H134.192V31.56ZM161.84 91.72C163.205 92.4027 165.168 93.4693 167.728 94.92C170.288 96.2853 172.976 97.8213 175.792 99.528C178.608 101.149 181.168 102.685 183.472 104.136C185.861 105.587 187.611 106.653 188.72 107.336L180.016 119.88C178.48 118.515 176.56 116.893 174.256 115.016C171.952 113.139 169.52 111.219 166.96 109.256C164.485 107.379 162.053 105.587 159.664 103.88C157.275 102.173 155.184 100.723 153.392 99.528L161.84 91.72ZM153.136 54.088H167.216V77C167.216 80.9253 166.832 84.8933 166.064 88.904C165.381 92.9147 164.016 96.84 161.968 100.68C159.92 104.52 156.976 108.147 153.136 111.56C149.296 115.059 144.304 118.173 138.16 120.904C137.221 119.283 135.813 117.448 133.936 115.4C132.144 113.437 130.437 111.816 128.816 110.536C134.107 108.488 138.331 106.099 141.488 103.368C144.731 100.637 147.205 97.736 148.912 94.664C150.619 91.592 151.728 88.52 152.24 85.448C152.837 82.376 153.136 79.4747 153.136 76.744V54.088ZM199.6 49.736H247.984V62.664H199.6V49.736ZM199.6 74.952H247.984V87.88H199.6V74.952ZM199.216 100.68H250.288V114.504H199.216V100.68ZM203.312 0.199997L217.392 3.52799C215.6 10.0987 213.467 16.6693 210.992 23.24C208.603 29.7253 205.957 35.8693 203.056 41.672C200.155 47.4747 197.125 52.5093 193.968 56.776C193.2 55.9227 192.091 54.8987 190.64 53.704C189.275 52.424 187.867 51.1867 186.416 49.992C184.965 48.712 183.728 47.7307 182.704 47.048C185.605 43.2933 188.336 38.8987 190.896 33.864C193.541 28.8293 195.888 23.4533 197.936 17.736C200.069 11.9333 201.861 6.088 203.312 0.199997ZM227.504 1.60799L242.224 4.936C240.432 9.88533 238.512 14.792 236.464 19.656C234.416 24.52 232.539 28.6587 230.832 32.072L218.416 28.872C219.525 26.3973 220.635 23.5813 221.744 20.424C222.939 17.2667 224.005 14.0667 224.944 10.824C225.968 7.49599 226.821 4.42399 227.504 1.60799ZM209.072 24.136H249.008V37.832H209.072V120.648H195.376V38.728L208.944 24.136H209.072ZM220.208 30.536H233.904V107.592H220.208V30.536ZM260.784 6.6H317.616V20.424H260.784V6.6ZM328.112 43.592H378.416V58.44H328.112V43.592ZM351.792 53.96H366.896V120.52H351.792V53.96ZM322.096 11.72L340.528 15.944C340.357 17.224 339.205 18.0347 337.072 18.376V47.432C337.072 52.6373 336.816 58.3973 336.304 64.712C335.792 70.9413 334.725 77.384 333.104 84.04C331.568 90.6107 329.221 97.0107 326.064 103.24C322.992 109.469 318.896 115.144 313.776 120.264C313.179 119.155 312.197 117.917 310.832 116.552C309.467 115.187 308.016 113.864 306.48 112.584C305.029 111.389 303.707 110.493 302.512 109.896C306.949 105.373 310.448 100.467 313.008 95.176C315.653 89.8853 317.616 84.4667 318.896 78.92C320.261 73.3733 321.115 67.912 321.456 62.536C321.883 57.0747 322.096 51.9547 322.096 47.176V11.72ZM264.88 30.152H279.472V62.92C279.472 67.1867 279.344 71.88 279.088 77C278.832 82.0347 278.277 87.1547 277.424 92.36C276.571 97.5653 275.376 102.6 273.84 107.464C272.304 112.328 270.299 116.723 267.824 120.648C267.056 119.709 265.904 118.643 264.368 117.448C262.832 116.253 261.253 115.101 259.632 113.992C258.096 112.883 256.816 112.029 255.792 111.432C258.608 106.824 260.656 101.704 261.936 96.072C263.216 90.3547 264.027 84.6373 264.368 78.92C264.709 73.1173 264.88 67.7413 264.88 62.792V30.152ZM364.208 1.48L377.648 13C373.125 15.2187 368.176 17.3093 362.8 19.272C357.424 21.1493 351.963 22.856 346.416 24.392C340.869 25.928 335.451 27.336 330.16 28.616C329.819 26.824 329.093 24.7333 327.984 22.344C326.96 19.8693 325.979 17.864 325.04 16.328C329.819 15.048 334.597 13.64 339.376 12.104C344.24 10.568 348.805 8.90399 353.072 7.11199C357.424 5.23466 361.136 3.35733 364.208 1.48ZM273.328 30.152H315.056V73.8H273.328V60.104H300.208V43.848H273.328V30.152Z" fill="#C8FF18"/>
</svg>
